<svg id="visual" viewBox="0 0 960 540" width="960" height="540" xmlns="http://www.w3.org/2000/svg" xmlns:xlink="http://www.w3.org/1999/xlink" version="1.1"><path d="M0 373L137 317L274 395L411 372L549 344L686 320L823 401L960 394L960 541L823 541L686 541L549 541L411 541L274 541L137 541L0 541Z" fill="#e3d7ff"></path><path d="M0 410L137 361L274 354L411 366L549 405L686 398L823 396L960 430L960 541L823 541L686 541L549 541L411 541L274 541L137 541L0 541Z" fill="#ceb8ff"></path><path d="M0 446L137 416L274 414L411 409L549 432L686 446L823 457L960 403L960 541L823 541L686 541L549 541L411 541L274 541L137 541L0 541Z" fill="#b89afd"></path><path d="M0 447L137 443L274 454L411 443L549 476L686 439L823 452L960 486L960 541L823 541L686 541L549 541L411 541L274 541L137 541L0 541Z" fill="#a27bfa"></path><path d="M0 486L137 475L274 504L411 478L549 485L686 483L823 506L960 500L960 541L823 541L686 541L549 541L411 541L274 541L137 541L0 541Z" fill="#8b5cf6"></path></svg>