<svg id="visual" viewBox="0 0 675 900" width="675" height="900" xmlns="http://www.w3.org/2000/svg" xmlns:xlink="http://www.w3.org/1999/xlink" version="1.1"><path d="M0 622L96 529L193 659L289 620L386 575L482 535L579 669L675 658L675 901L579 901L482 901L386 901L289 901L193 901L96 901L0 901Z" fill="#e3d7ff"></path><path d="M0 684L96 602L193 590L289 610L386 676L482 663L579 660L675 718L675 901L579 901L482 901L386 901L289 901L193 901L96 901L0 901Z" fill="#ceb8ff"></path><path d="M0 744L96 694L193 691L289 682L386 720L482 745L579 762L675 673L675 901L579 901L482 901L386 901L289 901L193 901L96 901L0 901Z" fill="#b89afd"></path><path d="M0 745L96 739L193 757L289 738L386 795L482 732L579 755L675 810L675 901L579 901L482 901L386 901L289 901L193 901L96 901L0 901Z" fill="#a27bfa"></path><path d="M0 811L96 793L193 841L289 797L386 810L482 806L579 844L675 833L675 901L579 901L482 901L386 901L289 901L193 901L96 901L0 901Z" fill="#8b5cf6"></path></svg>